<svg width="16" height="16" viewBox="0 0 16 16" fill="none" xmlns="http://www.w3.org/2000/svg">
<g clip-path="url(#clip0_116_317)">
<path d="M9.89914 8.00029L15.8418 2.05806C16.0527 1.84705 16.0527 1.50557 15.8418 1.29462L14.706 0.158483C14.6049 0.057401 14.4676 0.000488281 14.3244 0.000488281C14.181 0.000488281 14.0438 0.057401 13.9426 0.158483L8.00001 6.10116L2.0574 0.158483C1.95624 0.057401 1.81898 0.000488281 1.67567 0.000488281C1.5324 0.000488281 1.3951 0.057401 1.29399 0.158483L0.158264 1.29462C-0.0527546 1.50557 -0.0527546 1.84705 0.158264 2.05806L6.10088 8.00032L0.158854 13.9419C-0.0520601 14.1529 -0.0520601 14.4944 0.158854 14.7053L1.29465 15.8414C1.39573 15.9425 1.53303 15.9994 1.67633 15.9994C1.81964 15.9994 1.9569 15.9425 2.05809 15.8414L7.99998 9.89945L13.9419 15.8414C14.0431 15.9425 14.1803 15.9994 14.3236 15.9994C14.467 15.9994 14.6042 15.9425 14.7053 15.8414L15.8411 14.7053C16.052 14.4944 16.052 14.1529 15.8411 13.9419L9.89914 8.00029Z" fill="currentColor"/>
</g>
<defs>
<clipPath id="clip0_116_317">
<rect width="16" height="16" fill="white"/>
</clipPath>
</defs>
</svg>
